Coordinates
version=1
nRows=19
nColumns=63
inDegrees=yes

Units are S.I. units (second, meters, Newtons, ...)
If the header above contains a line with 'inDegrees', this indicates whether rotational values are in degrees (yes) or radians (no).

endheader
time	pelvis_tilt	pelvis_list	pelvis_rotation	pelvis_tx	pelvis_ty	pelvis_tz	hip_flexion_r	hip_adduction_r	hip_rotation_r	knee_angle_r	knee_angle_r_beta	ankle_angle_r	subtalar_angle_r	mtp_angle_r	hip_flexion_l	hip_adduction_l	hip_rotation_l	knee_angle_l	knee_angle_l_beta	ankle_angle_l	subtalar_angle_l	mtp_angle_l	L5_S1_Flex_Ext	L5_S1_Lat_Bending	L5_S1_axial_rotation	L4_L5_Flex_Ext	L4_L5_Lat_Bending	L4_L5_axial_rotation	L3_L4_Flex_Ext	L3_L4_Lat_Bending	L3_L4_axial_rotation	L2_L3_Flex_Ext	L2_L3_Lat_Bending	L2_L3_axial_rotation	L1_L2_Flex_Ext	L1_L2_Lat_Bending	L1_L2_axial_rotation	L1_T12_Flex_Ext	L1_T12_Lat_Bending	L1_T12_axial_rotation	Abs_r3	Abs_r2	Abs_r1	Abs_t1	Abs_t2	neck_flexion	neck_bending	neck_rotation	arm_flex_r	arm_add_r	arm_rot_r	elbow_flex_r	pro_sup_r	wrist_flex_r	wrist_dev_r	arm_flex_l	arm_add_l	arm_rot_l	elbow_flex_l	pro_sup_l	wrist_flex_l	wrist_dev_l
0.533333	8.880049	-1.346199	94.528664	0.104422	0.820455	0.809986	5.627846	3.757398	-2.281358	10.200070	0.178025	31.577365	12.960972	0.000000	4.788157	-3.789849	22.585550	6.557328	0.114447	28.525963	-15.332680	0.000000	0.194790	0.892824	-0.039432	0.361744	1.187456	-0.041896	0.320020	2.170813	-0.041896	0.222625	2.170813	-0.034503	0.180882	1.820647	-0.032038	0.111303	1.382985	-0.029574	1.391363	10.099806	-0.219308	0.000000	0.000000	15.037288	-1.380295	13.692797	20.210013	-11.997471	62.298949	33.975202	62.075582	-5.237020	-2.615305	18.638107	-9.282753	63.870687	36.711968	62.178418	-6.354917	-6.853141
0.550000	8.977164	-1.084100	93.871020	0.103495	0.821043	0.808126	5.457982	3.763742	-2.185755	10.665083	0.186141	31.576127	13.492813	0.000000	4.073252	-3.884293	22.440322	6.056708	0.105709	28.241238	-15.926976	0.000000	0.175396	0.933209	0.117093	0.325728	1.241168	0.124411	0.288159	2.269004	0.124411	0.200460	2.269004	0.102456	0.162873	1.903000	0.095138	0.100221	1.445541	0.087820	1.252838	10.556647	0.651235	0.000000	0.000000	14.811866	-1.836584	13.672530	19.204487	-12.769806	57.505926	32.743553	66.367587	-7.890954	-3.411443	18.107701	-9.071581	62.479978	35.631174	63.780930	-6.256760	-6.753321
0.566667	9.052967	-0.745327	93.205662	0.102677	0.821875	0.805785	5.122583	3.770860	-1.913141	11.007594	0.192119	31.511640	13.815538	0.000000	3.233613	-3.958503	22.342787	5.542134	0.096728	27.887874	-16.567811	0.000000	0.153878	0.967506	0.269349	0.285767	1.286784	0.286183	0.252806	2.352395	0.286183	0.175867	2.352395	0.235680	0.142891	1.972939	0.218846	0.087926	1.498667	0.202012	1.099135	10.944626	1.498038	0.000000	0.000000	14.390100	-2.274051	13.546471	18.283451	-13.475983	54.803145	31.183034	68.858801	-10.005531	-4.118945	17.508010	-8.964193	60.892188	34.667771	66.222285	-6.071767	-6.089250
0.583333	9.124887	-0.324702	92.558295	0.101952	0.822941	0.803005	4.607215	3.799280	-1.434736	11.201650	0.195506	31.364340	13.850606	0.000000	2.282800	-4.032060	22.221218	5.042329	0.088005	27.497628	-17.131082	0.000000	0.129522	0.997814	0.415636	0.240535	1.327093	0.441613	0.212791	2.426085	0.441613	0.148030	2.426085	0.363681	0.120274	2.034742	0.337704	0.074009	1.545614	0.311727	0.925160	11.287471	2.311640	0.000000	0.000000	13.772666	-2.708638	13.302839	17.431036	-14.164013	53.868494	29.440036	69.789395	-11.542655	-4.681164	16.822724	-8.992988	59.090049	33.835751	69.562289	-5.930601	-4.833064
0.600000	9.203797	0.168610	91.963454	0.101279	0.824204	0.799827	3.916030	3.861601	-0.746973	11.228651	0.195977	31.112688	13.556748	0.000000	1.248387	-4.117438	22.066136	4.580403	0.079943	27.092296	-17.552148	0.000000	0.103735	1.026245	0.547539	0.192646	1.364906	0.581761	0.170426	2.495212	0.581761	0.118558	2.495212	0.479097	0.096328	2.092719	0.444876	0.059274	1.589654	0.410655	0.740967	11.609089	3.045250	0.000000	0.000000	12.985791	-3.133283	13.012014	16.661867	-14.851196	54.536349	27.608724	69.306559	-12.473794	-5.081294	16.012702	-9.186528	57.093764	33.132053	73.767854	-6.049452	-3.092357
0.616667	9.293550	0.719396	91.442025	0.100647	0.825627	0.796329	3.066921	3.963748	0.161077	11.084272	0.193457	30.748782	12.897168	0.000000	0.159575	-4.220122	21.878319	4.171233	0.072802	26.687629	-17.795582	0.000000	0.077923	1.053294	0.661436	0.144711	1.400881	0.702776	0.128020	2.560979	0.702776	0.089058	2.560979	0.578757	0.072359	2.147877	0.537417	0.044525	1.631552	0.496077	0.556596	11.915073	3.678710	0.000000	0.000000	12.070270	-3.536750	12.689877	15.970384	-15.549167	56.507266	25.779811	67.651364	-12.794248	-5.334408	15.106815	-9.490666	55.240784	32.437942	78.198504	-6.535949	-1.214212
0.633333	9.388530	1.312451	91.011048	0.100076	0.827156	0.792604	2.097236	4.107467	1.297881	10.805431	0.188590	30.277234	11.814392	0.000000	-0.953556	-4.333231	21.721059	3.829436	0.066836	26.284435	-17.929323	0.000000	0.052627	1.077806	0.748222	0.097734	1.433482	0.794985	0.086461	2.620578	0.794985	0.060148	2.620578	0.654694	0.048870	2.197863	0.607930	0.030071	1.669522	0.561166	0.375910	12.192360	4.161384	0.000000	0.000000	11.059248	-3.875107	12.381369	15.418158	-16.230247	59.870650	23.989884	64.649660	-12.543443	-5.439794	14.131619	-9.889935	53.693416	31.754011	81.261470	-7.167816	0.308627
0.650000	9.482023	1.923680	90.667607	0.099557	0.828731	0.788759	1.065985	4.268769	2.464140	10.450496	0.182396	29.767666	10.580153	0.000000	-2.057673	-4.445437	21.601648	3.559160	0.062119	25.888586	-17.982184	0.000000	0.029317	1.099668	0.804259	0.054444	1.462558	0.854525	0.048164	2.673732	0.854525	0.033506	2.673732	0.703727	0.027223	2.242442	0.653461	0.016751	1.703385	0.603194	0.209405	12.439659	4.473049	0.000000	0.000000	10.005506	-4.138362	12.137310	15.024750	-16.912388	64.249849	22.322305	60.617652	-11.891434	-5.463021	13.114100	-10.296703	52.640228	30.961655	83.411731	-7.793106	1.375035
0.666667	9.569832	2.530877	90.398412	0.099137	0.830281	0.784900	0.026019	4.445750	3.669594	10.068786	0.175733	29.259479	9.198201	0.000000	-3.126119	-4.557549	21.535578	3.355036	0.058556	25.522916	-17.984612	0.000000	0.009471	1.116835	0.838487	0.017588	1.485390	0.890892	0.015559	2.715472	0.890892	0.010824	2.715472	0.733676	0.008794	2.277450	0.681270	0.005411	1.729977	0.628865	0.067647	12.633859	4.663411	0.000000	0.000000	9.000271	-4.273968	11.808778	14.751557	-17.565648	69.465805	20.756116	55.670648	-10.955772	-5.432195	12.175928	-10.702671	52.309874	30.079621	84.858666	-8.429083	2.177843
0.683333	9.658152	3.118257	90.206453	0.098747	0.831745	0.781099	-0.981155	4.628271	4.779903	9.703745	0.169362	28.808653	7.841546	0.000000	-4.140085	-4.665404	21.571003	3.208809	0.056004	25.168803	-18.030932	0.000000	-0.006722	1.132140	0.845307	-0.012483	1.505747	0.898139	-0.011044	2.752686	0.898139	-0.007683	2.752686	0.739644	-0.006242	2.308661	0.686812	-0.003841	1.753686	0.633980	-0.048015	12.806999	4.701346	0.000000	0.000000	8.083530	-4.287091	11.515783	14.627355	-18.197488	75.437368	19.298045	49.767051	-9.892660	-5.404214	11.332449	-11.095410	52.713488	29.096243	85.620784	-9.374514	2.530529
0.700000	9.755786	3.661209	90.082980	0.098359	0.833039	0.777452	-1.902455	4.822186	5.825453	9.398100	0.164028	28.453932	6.485386	0.000000	-5.062722	-4.775092	21.640318	3.128022	0.054594	24.872990	-18.045065	0.000000	-0.018426	1.148522	0.827154	-0.034220	1.527534	0.878851	-0.030273	2.792516	0.878851	-0.021059	2.792516	0.723760	-0.017111	2.342066	0.672063	-0.010529	1.779060	0.620366	-0.131617	12.992310	4.600384	0.000000	0.000000	7.324755	-4.191557	11.355928	14.598983	-18.801753	81.864653	17.935097	43.182691	-8.761967	-5.399101	10.612827	-11.462836	53.831123	28.038896	85.643183	-10.576914	2.518653
0.716667	9.872628	4.141659	89.987406	0.097974	0.834103	0.774057	-2.688044	5.021014	6.678329	9.202786	0.160619	28.247047	5.348988	0.000000	-5.879377	-4.893867	21.715402	3.101111	0.054125	24.633138	-18.079533	0.000000	-0.025912	1.167643	0.793873	-0.048122	1.552965	0.843490	-0.042571	2.839006	0.843490	-0.029615	2.839006	0.694639	-0.024062	2.381057	0.645022	-0.014806	1.808678	0.595405	-0.185089	13.208607	4.415286	0.000000	0.000000	6.776953	-3.978506	11.286017	14.629205	-19.383749	88.461344	16.674758	36.134479	-7.673979	-5.416743	10.002806	-11.778776	55.405948	26.917297	85.741528	-12.112357	2.274824
0.733333	10.028364	4.561618	89.945063	0.097514	0.834912	0.771007	-3.331345	5.245635	7.339541	9.123209	0.159230	28.179133	4.387585	0.000000	-6.580006	-5.043014	21.785423	3.127844	0.054591	24.467835	-18.098659	0.000000	-0.030745	1.193738	0.743723	-0.057096	1.587672	0.790205	-0.050510	2.902455	0.790205	-0.035138	2.902455	0.650757	-0.028549	2.434271	0.604275	-0.017567	1.849100	0.557792	-0.219605	13.503803	4.136362	0.000000	0.000000	6.455987	-3.695197	11.395198	14.708911	-19.956497	95.064294	15.502002	28.767870	-6.674294	-5.539125	9.606021	-12.045352	57.694477	25.739936	85.398224	-13.766893	1.809119
0.750000	10.221464	4.904191	89.944062	0.096976	0.835425	0.768393	-3.800079	5.493647	7.799755	9.177664	0.160180	28.246957	3.617218	0.000000	-7.142346	-5.221970	21.831005	3.205406	0.055945	24.369219	-18.116743	0.000000	-0.033022	1.226426	0.685717	-0.061324	1.631147	0.728574	-0.054251	2.981932	0.728574	-0.037740	2.981932	0.600002	-0.030664	2.500928	0.557145	-0.018869	1.899734	0.514288	-0.235870	13.873577	3.813751	0.000000	0.000000	6.407513	-3.359454	11.612449	14.720823	-20.520340	100.949299	14.499117	21.921924	-5.783419	-5.604677	9.369445	-12.240841	60.276085	24.528842	85.340872	-15.314131	1.324149
0.766667	10.440842	5.164712	89.982587	0.096369	0.835637	0.766260	-4.091596	5.751860	8.041496	9.357551	0.163320	28.438635	3.065026	0.000000	-7.558353	-5.419742	21.844483	3.333804	0.058186	24.345186	-18.123953	0.000000	-0.032983	1.264142	0.623065	-0.061253	1.681309	0.662007	-0.054188	3.073636	0.662007	-0.037697	3.073636	0.545182	-0.030628	2.577839	0.506240	-0.018847	1.958156	0.467299	-0.235596	14.300230	3.465300	0.000000	0.000000	6.622724	-2.972031	11.922058	14.652953	-21.080494	105.899679	13.717955	15.904504	-5.047071	-5.618328	9.304528	-12.380266	63.160605	23.300306	85.366428	-16.751391	0.801805
0.783333	10.670604	5.344228	90.024456	0.095786	0.835584	0.764622	-4.210839	6.006483	8.096830	9.657586	0.168557	28.726773	2.731086	0.000000	-7.836131	-5.622561	21.807126	3.505464	0.061182	24.382143	-18.121475	0.000000	-0.031101	1.304306	0.563894	-0.057758	1.734727	0.599137	-0.051096	3.171290	0.599137	-0.035545	3.171290	0.493407	-0.028880	2.659741	0.458164	-0.017771	2.020370	0.422920	-0.222151	14.754574	3.136207	0.000000	0.000000	7.055971	-2.559117	12.299565	14.502362	-21.645396	109.788760	13.204426	10.948614	-4.509599	-5.531303	9.337681	-12.480231	66.064621	22.091288	85.313349	-18.014921	0.138596
0.800000	10.886469	5.449263	90.057777	0.095252	0.835313	0.763447	-4.180755	6.229475	7.949493	10.054390	0.175482	29.085081	2.652210	0.000000	-7.995240	-5.807509	21.712046	3.692809	0.064452	24.463917	-18.105222	0.000000	-0.027574	1.343114	0.510930	-0.051208	1.786342	0.542863	-0.045302	3.265647	0.542863	-0.031515	3.265647	0.447064	-0.025605	2.738878	0.415131	-0.015756	2.080483	0.383197	-0.196960	15.193573	2.841639	0.000000	0.000000	7.660203	-2.120734	12.673993	14.283900	-22.216967	112.563544	12.954305	7.142141	-4.157843	-5.350409	9.399658	-12.549874	68.805070	20.932792	84.981229	-19.139986	-0.734705
0.816667	11.061292	5.487578	90.047407	0.094882	0.834870	0.762704	-4.017776	6.394989	7.632779	10.537506	0.183914	29.501037	2.835749	0.000000	-8.054906	-5.950173	21.547081	3.876746	0.067662	24.570426	-18.082653	0.000000	-0.023398	1.375550	0.471104	-0.043453	1.829482	0.500548	-0.038441	3.344512	0.500548	-0.026742	3.344512	0.412216	-0.021728	2.805022	0.382772	-0.013370	2.130727	0.353328	-0.167133	15.560497	2.620140	0.000000	0.000000	8.391509	-1.627479	12.986129	13.988767	-22.771182	114.086006	12.954259	4.766360	-3.991582	-5.051102	9.395113	-12.617093	71.082133	19.910726	84.277541	-20.139990	-1.838877
0.833333	11.191143	5.452334	89.992267	0.094682	0.834283	0.762357	-3.737982	6.510472	7.289664	11.060293	0.193039	29.929701	3.103750	0.000000	-8.010804	-6.047467	21.301675	4.043450	0.070572	24.689096	-18.045188	0.000000	-0.017332	1.400911	0.441694	-0.032188	1.863212	0.469300	-0.028475	3.406175	0.469300	-0.019809	3.406175	0.386482	-0.016095	2.856738	0.358876	-0.009904	2.170011	0.331270	-0.123804	15.847385	2.456569	0.000000	0.000000	9.235636	-1.085838	13.271191	13.627694	-23.310383	114.214630	13.210865	4.025255	-3.978143	-4.583896	9.233453	-12.643267	72.564203	19.054485	83.511956	-21.054914	-3.064226
